<svg xmlns="http://www.w3.org/2000/svg" width="71" height="71" viewBox="0 0 71 71" fill="none">
<circle cx="35.1722" cy="35.6278" r="35.0833" fill="#E53170"/>
<path d="M36.6341 23.2024C36.6341 22.6209 36.403 22.0632 35.9918 21.652C35.5806 21.2408 35.0229 21.0097 34.4414 21.0097C33.8598 21.0097 33.3021 21.2408 32.8909 21.652C32.4797 22.0632 32.2486 22.6209 32.2486 23.2024V32.7042H22.7469C22.1654 32.7042 21.6076 32.9352 21.1964 33.3464C20.7852 33.7576 20.5542 34.3153 20.5542 34.8969C20.5542 35.4784 20.7852 36.0362 21.1964 36.4474C21.6076 36.8586 22.1654 37.0896 22.7469 37.0896H32.2486V46.5913C32.2486 47.1729 32.4797 47.7306 32.8909 48.1418C33.3021 48.553 33.8598 48.784 34.4414 48.784C35.0229 48.784 35.5806 48.553 35.9918 48.1418C36.403 47.7306 36.6341 47.1729 36.6341 46.5913V37.0896H46.1358C46.7173 37.0896 47.2751 36.8586 47.6863 36.4474C48.0975 36.0362 48.3285 35.4784 48.3285 34.8969C48.3285 34.3153 48.0975 33.7576 47.6863 33.3464C47.2751 32.9352 46.7173 32.7042 46.1358 32.7042H36.6341V23.2024Z" fill="white"/>
</svg>