<svg xmlns="http://www.w3.org/2000/svg" width="17" height="19" viewBox="0 0 17 19" fill="none">
<path d="M10.276 3.48778C10.276 3.06907 10.1096 2.66751 9.81356 2.37143C9.51749 2.07536 9.11593 1.90903 8.69722 1.90903C8.27851 1.90903 7.87695 2.07536 7.58087 2.37143C7.2848 2.66751 7.11847 3.06907 7.11847 3.48778H6.06597C6.06597 2.78993 6.34319 2.12066 6.83664 1.6272C7.3301 1.13375 7.99937 0.856529 8.69722 0.856529C9.39507 0.856529 10.0643 1.13375 10.5578 1.6272C11.0512 2.12066 11.3285 2.78993 11.3285 3.48778H16.0647C16.2043 3.48778 16.3381 3.54322 16.4368 3.64191C16.5355 3.74061 16.591 3.87446 16.591 4.01403C16.591 4.1536 16.5355 4.28745 16.4368 4.38614C16.3381 4.48484 16.2043 4.54028 16.0647 4.54028H15.4816L14.1176 16.3599C14.0582 16.8728 13.8123 17.3461 13.4267 17.6896C13.0411 18.0331 12.5427 18.2228 12.0263 18.2228H5.36816C4.85175 18.2228 4.35333 18.0331 3.96772 17.6896C3.58211 17.3461 3.33623 16.8728 3.27684 16.3599L1.91175 4.54028H1.32972C1.20655 4.54032 1.08727 4.49716 0.992644 4.41831C0.898023 4.33945 0.834057 4.22991 0.811887 4.10875L0.803467 4.01403C0.803467 3.87446 0.858911 3.74061 0.957602 3.64191C1.05629 3.54322 1.19015 3.48778 1.32972 3.48778H10.276ZM14.4207 4.54028H2.97267L4.32197 16.2388C4.35168 16.4954 4.4747 16.7321 4.66761 16.9039C4.86052 17.0756 5.10986 17.1704 5.36816 17.1703H12.0263C12.2844 17.1702 12.5335 17.0752 12.7262 16.9035C12.9189 16.7318 13.0417 16.4952 13.0714 16.2388L14.4207 4.54028ZM7.11847 7.17153C7.37633 7.17153 7.59209 7.33467 7.6363 7.54938L7.64472 7.63252V14.0791C7.64472 14.3327 7.40896 14.539 7.11847 14.539C6.8606 14.539 6.64484 14.3759 6.60064 14.1612L6.59222 14.078V7.63358C6.59222 7.37887 6.82798 7.17258 7.11847 7.17258V7.17153ZM10.276 7.17153C10.5338 7.17153 10.7496 7.33467 10.7938 7.54938L10.8022 7.63252V14.0791C10.8022 14.3327 10.5665 14.539 10.276 14.539C10.0181 14.539 9.80234 14.3759 9.75814 14.1612L9.74972 14.078V7.63358C9.74972 7.37887 9.98548 7.17258 10.276 7.17258V7.17153Z" fill="#F25F4C"/>
</svg>