<svg xmlns="http://www.w3.org/2000/svg" width="20" height="20" viewBox="0 0 20 20" fill="none">
  <path d="M19.2322 4.14267L15.7999 0.692808C15.5731 0.467143 15.2661 0.340462 14.9462 0.340462C14.6262 0.340462 14.3193 0.467143 14.0925 0.692808L1.92442 12.8433L0.813446 17.6381C0.775122 17.8133 0.776435 17.995 0.817292 18.1697C0.858148 18.3444 0.937515 18.5077 1.04959 18.6478C1.16167 18.7879 1.30363 18.9012 1.46511 18.9794C1.62658 19.0576 1.80348 19.0988 1.98289 19.0999C2.06649 19.1083 2.15072 19.1083 2.23432 19.0999L7.08167 17.9889L19.2322 5.85006C19.4579 5.62325 19.5845 5.31631 19.5845 4.99636C19.5845 4.67641 19.4579 4.36948 19.2322 4.14267ZM6.49695 16.9364L1.95365 17.8895L2.98861 13.4339L12.0927 4.36486L15.6011 7.8732L6.49695 16.9364ZM16.3846 7.02535L12.8763 3.51702L14.9111 1.49388L18.361 5.00221L16.3846 7.02535Z" fill="#F25F4C"/>
</svg>